<svg id="Layer_2" data-name="Layer 2" xmlns="http://www.w3.org/2000/svg" viewBox="0 0 1163.5 412.25"><defs><style>.cls-1,.cls-3{fill:#7ea52e;}.cls-1{stroke:#4d4d4f;stroke-miterlimit:10;stroke-width:15px;}.cls-2{fill:#4d4d4f;}</style></defs><title>Vector Smart Object3</title><circle class="cls-1" cx="871.84" cy="177.44" r="15.3" transform="translate(-136.64 638.57) rotate(-49.55)"/><path class="cls-1" d="M942.52,354.92a21.44,21.44,0,1,0,2.41,30.23A21.45,21.45,0,0,0,942.52,354.92Z" transform="translate(-307.83 -87.21)"/><path class="cls-1" d="M929.67,227.26a15.3,15.3,0,1,0,1.72,21.58A15.29,15.29,0,0,0,929.67,227.26Z" transform="translate(-307.83 -87.21)"/><path class="cls-1" d="M999.33,232.81a15.3,15.3,0,1,1-1.73-21.57A15.32,15.32,0,0,1,999.33,232.81Z" transform="translate(-307.83 -87.21)"/><path class="cls-1" d="M1012.82,318.25a21.45,21.45,0,1,1-2.41-30.23A21.44,21.44,0,0,1,1012.82,318.25Z" transform="translate(-307.83 -87.21)"/><path class="cls-1" d="M1057.74,379.61A15.3,15.3,0,1,1,1056,358,15.31,15.31,0,0,1,1057.74,379.61Z" transform="translate(-307.83 -87.21)"/><path class="cls-1" d="M1157.55,319.42a15.3,15.3,0,1,1-1.71-21.57A15.3,15.3,0,0,1,1157.55,319.42Z" transform="translate(-307.83 -87.21)"/><circle class="cls-1" cx="1172.44" cy="256.15" r="15.3" transform="translate(-91.02 894.89) rotate(-49.55)"/><path class="cls-1" d="M1274.61,286.76a15.3,15.3,0,1,1-1.72-21.58A15.3,15.3,0,0,1,1274.61,286.76Z" transform="translate(-307.83 -87.21)"/><circle class="cls-1" cx="552.27" cy="337.89" r="21.44" transform="translate(-388.94 384.85) rotate(-43.42)"/><path class="cls-1" d="M711.28,307.76a21.44,21.44,0,1,1-2.41-30.23A21.45,21.45,0,0,1,711.28,307.76Z" transform="translate(-307.83 -87.21)"/><circle class="cls-1" cx="763.02" cy="198.22" r="15.3" transform="translate(-13.54 744.87) rotate(-68.08)"/><circle class="cls-1" cx="795.44" cy="361.15" r="15.3" transform="translate(-303.26 645) rotate(-49.55)"/><circle class="cls-1" cx="842.22" cy="287.54" r="21.44" transform="translate(-230.79 654.77) rotate(-49.56)"/><path class="cls-1" d="M1103.77,244.53a15.3,15.3,0,1,1-1.72-21.58A15.31,15.31,0,0,1,1103.77,244.53Z" transform="translate(-307.83 -87.21)"/><path class="cls-2" d="M979.43,464.17c-75.49,8.28-151.67,3-227.15-15.81-100.57-25.05-168.53-25.91-172.21-25.94-80.11,1.92-137.42,17.48-171.4,30.2C371.89,466.4,353.78,479.9,353.6,480l-19.18-25.12c3.21-2.46,80.41-60.22,245.1-64.1h.35c2.93,0,73,.22,180,26.88,201.66,50.23,370.21-11.45,476.09-72a805.87,805.87,0,0,0,155.4-116.09c-79.22.45-190.29-20.94-239.5-40-13.72-5.31-26.38-10.3-38.62-15.13-98.12-38.67-149.21-64-249.27-53l-1.12.12C713.74,138.14,598.68,245.85,566.46,276.67l-21.85-22.83c34-32.55,155.77-146,314.77-163.73l1.17-.13c107.86-11.82,164.59,15.75,264.32,55.06,12.2,4.81,24.82,9.78,38.45,15.06,56,21.7,197.31,46.13,265.62,35.25l42.38-6.75-27.89,32.62c-2.88,3.37-71.94,83.31-191.75,151.87-70.47,40.33-143.88,68.18-218.18,82.8Q1006.55,461.19,979.43,464.17Z" transform="translate(-307.83 -87.21)"/><ellipse class="cls-2" cx="556.63" cy="264.26" rx="15.91" ry="15.78" transform="translate(-333.31 -25) rotate(-6.25)"/><path class="cls-2" d="M642.2,395.57C552.52,385,395.5,389.81,313.14,411.9c0,0-24.16,51.1,30.69,87.55,0,0,16-29.85,72.33-49.55l55.27-40.38Z" transform="translate(-307.83 -87.21)"/><circle class="cls-3" cx="871.84" cy="177.44" r="15.3" transform="translate(-136.64 638.57) rotate(-49.55)"/><path class="cls-3" d="M942.52,354.92a21.44,21.44,0,1,0,2.41,30.23A21.45,21.45,0,0,0,942.52,354.92Z" transform="translate(-307.83 -87.21)"/><path class="cls-3" d="M929.67,227.26a15.3,15.3,0,1,0,1.72,21.58A15.29,15.29,0,0,0,929.67,227.26Z" transform="translate(-307.83 -87.21)"/><path class="cls-3" d="M999.33,232.81a15.3,15.3,0,1,1-1.73-21.57A15.32,15.32,0,0,1,999.33,232.81Z" transform="translate(-307.83 -87.21)"/><path class="cls-3" d="M1012.82,318.25a21.45,21.45,0,1,1-2.41-30.23A21.44,21.44,0,0,1,1012.82,318.25Z" transform="translate(-307.83 -87.21)"/><path class="cls-3" d="M1057.74,379.61A15.3,15.3,0,1,1,1056,358,15.31,15.31,0,0,1,1057.74,379.61Z" transform="translate(-307.83 -87.21)"/><path class="cls-3" d="M1157.55,319.42a15.3,15.3,0,1,1-1.71-21.57A15.3,15.3,0,0,1,1157.55,319.42Z" transform="translate(-307.83 -87.21)"/><circle class="cls-3" cx="1172.44" cy="256.15" r="15.3" transform="translate(-91.02 894.89) rotate(-49.55)"/><path class="cls-3" d="M1274.61,286.76a15.3,15.3,0,1,1-1.72-21.58A15.3,15.3,0,0,1,1274.61,286.76Z" transform="translate(-307.83 -87.21)"/><path class="cls-3" d="M711.28,307.76a21.44,21.44,0,1,1-2.41-30.23A21.45,21.45,0,0,1,711.28,307.76Z" transform="translate(-307.83 -87.21)"/><circle class="cls-3" cx="763.02" cy="198.22" r="15.3" transform="translate(-13.54 744.87) rotate(-68.08)"/><circle class="cls-3" cx="795.44" cy="361.15" r="15.3" transform="translate(-303.26 645) rotate(-49.55)"/><circle class="cls-3" cx="842.22" cy="287.54" r="21.44" transform="translate(-230.79 654.77) rotate(-49.56)"/><path class="cls-3" d="M1103.77,244.53a15.3,15.3,0,1,1-1.72-21.58A15.31,15.31,0,0,1,1103.77,244.53Z" transform="translate(-307.83 -87.21)"/><path class="cls-2" d="M966,221.75,937.1,225.8a21.71,21.71,0,0,1,4.23,10.57l26.89-3.77a21.7,21.7,0,0,1-2.22-8A21.93,21.93,0,0,1,966,221.75Z" transform="translate(-307.83 -87.21)"/><path class="cls-2" d="M1151,288.34a21.68,21.68,0,0,1,9,4.6c.25.21.47.45.71.67l8.33-16.24a21.72,21.72,0,0,1-10-4.78Z" transform="translate(-307.83 -87.21)"/><path class="cls-2" d="M779.07,346.83c-18.73-11-42.73-28.22-59.52-40.73a27.29,27.29,0,0,1-3.68,5.57,27.69,27.69,0,0,1-3.17,3.14c17.1,12.75,41.77,30.48,61.43,41.9a21.61,21.61,0,0,1,4.74-9.68Z" transform="translate(-307.83 -87.21)"/><path class="cls-2" d="M898.3,242.44l-37.08,25.64a27.22,27.22,0,0,1,6.28,9.1l35.42-24.5A21.51,21.51,0,0,1,898.3,242.44Z" transform="translate(-307.83 -87.21)"/><path class="cls-2" d="M913.7,348.16c-14.46-14.12-33.74-32.38-48-45.86a27.43,27.43,0,0,1-2.5,3.45,27.71,27.71,0,0,1-5.06,4.63c14.26,13.42,33.46,31.62,47.73,45.53a27.34,27.34,0,0,1,7.88-7.75Z" transform="translate(-307.83 -87.21)"/><path class="cls-2" d="M1166.47,302.45a21.19,21.19,0,0,1,.89,10.52c15.35-3.12,42.87-7.65,77.73-22.88a41.13,41.13,0,0,1-3.43-8.92C1207.75,294.19,1181.63,299.95,1166.47,302.45Z" transform="translate(-307.83 -87.21)"/><path class="cls-2" d="M910.09,219.4,888.78,191c-.1.13-.19.26-.29.38a21.72,21.72,0,0,1-8.62,6.16l21.9,29.12a22.36,22.36,0,0,1,1.44-1.9A21.8,21.8,0,0,1,910.09,219.4Z" transform="translate(-307.83 -87.21)"/><path class="cls-2" d="M666.87,292.46C641.24,298.77,606,310.23,575.34,323a27.3,27.3,0,0,1,4,10.32c29.87-12.43,64.47-23.76,89.29-30a27.44,27.44,0,0,1-1.79-10.57C666.85,292.67,666.86,292.57,666.87,292.46Z" transform="translate(-307.83 -87.21)"/><path class="cls-2" d="M815.19,283.07c-26.67.69-67.19,1.82-93.91,3a27.68,27.68,0,0,1,1,11c26.48-1.11,66.73-2.24,93.23-2.93a28,28,0,0,1-.61-4A27.58,27.58,0,0,1,815.19,283.07Z" transform="translate(-307.83 -87.21)"/><path class="cls-2" d="M1124.43,306.14c-30.3,1.42-71-2.15-100.68-5.15a27.61,27.61,0,0,1-.88,11c30.08,3,71.45,6.65,102.68,5.13a21.38,21.38,0,0,1-1.12-11Z" transform="translate(-307.83 -87.21)"/><path class="cls-2" d="M970.48,295.48c-31.08-3.19-73.66-7.54-100.93-10.32a27.59,27.59,0,0,1-1.1,11l100.67,10.3A27.3,27.3,0,0,1,970.48,295.48Z" transform="translate(-307.83 -87.21)"/><path class="cls-2" d="M1038.49,349.28c-6.53-9-14.22-19.27-20.58-27.75-.17.21-.32.42-.5.62a27.65,27.65,0,0,1-8,6.45c6.26,8.34,13.73,18.38,20.07,27.06l.08-.1A21.7,21.7,0,0,1,1038.49,349.28Z" transform="translate(-307.83 -87.21)"/><path class="cls-2" d="M746.36,212.22c-10.77,16.42-27.1,39.92-39.13,57.06a27.25,27.25,0,0,1,8.71,6.85c12-17.09,28.41-40.71,39.46-57.55l-.5-.18A21.59,21.59,0,0,1,746.36,212.22Z" transform="translate(-307.83 -87.21)"/><path class="cls-2" d="M1071.88,242.58c-15.44,12.15-38.39,29.24-55.24,41.67a27.28,27.28,0,0,1,6.08,9.26c16.81-12.39,39.88-29.57,55.71-42-.14-.11-.29-.22-.42-.34A21.65,21.65,0,0,1,1071.88,242.58Z" transform="translate(-307.83 -87.21)"/></svg>